<?xml version="1.0" standalone="no"?>
<!DOCTYPE svg PUBLIC "-//W3C//DTD SVG 20010904//EN"
 "http://www.w3.org/TR/2001/REC-SVG-20010904/DTD/svg10.dtd">
<svg version="1.0" xmlns="http://www.w3.org/2000/svg"
 width="23" height="23" viewBox="0 0 1270.000000 1280.000000"
 preserveAspectRatio="xMidYMid meet">
<metadata>
Created by potrace 1.15, written by Peter Selinger 2001-2017
</metadata>
<g transform="translate(0.000000,1280.000000) scale(0.100000,-0.100000)"
fill="#ffffff" stroke="none">
<path d="M7580 11960 c0 -5 -8 -10 -17 -10 -41 0 -43 -30 -43 -604 0 -303 -4
-557 -8 -564 -6 -9 -14 -4 -30 18 -12 16 -22 33 -22 39 0 5 -7 12 -16 15 -8 3
-12 10 -9 16 3 6 -2 13 -12 17 -10 4 -31 23 -48 42 -16 19 -38 41 -47 50 -10
8 -18 19 -18 24 0 4 -25 33 -55 63 -30 31 -55 62 -55 70 0 8 -4 14 -10 14 -5
0 -10 9 -10 20 0 11 -7 20 -15 20 -9 0 -18 7 -21 15 -4 8 -12 15 -18 15 -7 0
-18 16 -26 35 -8 19 -21 35 -29 35 -9 0 -29 21 -46 45 -16 25 -33 45 -37 45
-5 0 -8 9 -8 20 0 11 -6 20 -13 20 -14 0 -47 35 -47 49 0 5 -9 11 -20 14 -12
3 -20 14 -20 26 0 12 -4 21 -9 21 -5 0 -11 8 -13 18 -3 9 -18 24 -34 32 -30
16 -114 97 -114 111 0 4 -14 15 -32 23 -26 14 -83 16 -380 16 -225 0 -348 -4
-348 -10 0 -5 -6 -10 -14 -10 -25 0 -83 -44 -95 -72 -7 -15 -20 -30 -29 -33
-9 -3 -24 -20 -33 -37 -8 -18 -29 -39 -47 -47 -17 -9 -32 -24 -32 -33 0 -10
-4 -18 -10 -18 -5 0 -10 -5 -10 -11 0 -14 -67 -79 -81 -79 -5 0 -9 -8 -9 -18
0 -17 -35 -63 -107 -139 -18 -18 -33 -40 -33 -48 0 -8 -4 -15 -9 -15 -12 0
-71 -59 -71 -71 0 -5 -9 -9 -20 -9 -11 0 -20 -6 -20 -13 0 -21 -24 -67 -35
-67 -13 0 -45 -36 -45 -50 0 -6 -9 -10 -20 -10 -13 0 -20 -7 -20 -20 0 -11 -4
-20 -10 -20 -5 0 -10 -9 -10 -20 0 -11 -4 -20 -9 -20 -5 0 -19 -11 -32 -25
-13 -13 -30 -25 -36 -25 -7 0 -13 -6 -13 -14 0 -7 -11 -25 -25 -40 -14 -15
-25 -31 -25 -37 0 -5 -9 -9 -20 -9 -13 0 -20 -7 -20 -20 0 -11 -4 -20 -10 -20
-5 0 -10 -4 -10 -10 0 -13 -43 -56 -52 -52 -5 1 -8 -7 -8 -18 0 -11 -7 -20
-15 -20 -8 0 -15 -4 -15 -10 0 -5 -7 -10 -15 -10 -8 0 -15 -9 -15 -20 0 -11
-6 -20 -13 -20 -7 0 -19 -16 -27 -35 -8 -19 -20 -35 -27 -35 -8 0 -16 -7 -19
-15 -4 -8 -13 -15 -21 -15 -10 0 -14 -7 -10 -20 3 -13 0 -20 -9 -20 -8 0 -14
-6 -14 -14 0 -8 -7 -16 -15 -20 -8 -3 -15 -12 -15 -21 0 -8 -4 -15 -10 -15 -5
0 -10 -6 -10 -13 0 -6 -14 -18 -30 -25 -18 -8 -30 -21 -30 -33 0 -10 -6 -19
-12 -19 -7 0 -22 -14 -33 -30 -11 -16 -28 -30 -38 -30 -14 0 -17 -5 -12 -20 5
-14 2 -20 -9 -20 -9 0 -16 -7 -16 -16 0 -9 -14 -30 -30 -46 -16 -15 -30 -30
-30 -33 0 -3 -18 -21 -40 -41 -22 -20 -40 -41 -40 -48 0 -6 -14 -20 -30 -31
-16 -11 -30 -25 -30 -31 0 -6 -13 -24 -30 -40 -16 -16 -30 -33 -30 -37 0 -16
-86 -107 -100 -107 -5 0 -10 -5 -10 -10 0 -6 -13 -23 -28 -38 -16 -15 -31 -35
-35 -45 -3 -9 -11 -17 -17 -17 -5 0 -10 -4 -10 -10 0 -13 -37 -50 -50 -50 -5
0 -10 -7 -10 -15 0 -17 -9 -29 -57 -78 -44 -45 -66 -62 -75 -60 -5 2 -8 -9 -8
-23 0 -21 -3 -24 -21 -19 -19 6 -21 4 -16 -14 3 -14 0 -21 -9 -21 -8 0 -14 -6
-14 -14 0 -8 -7 -16 -15 -20 -8 -3 -15 -12 -15 -21 0 -8 -4 -15 -10 -15 -5 0
-10 -7 -10 -15 0 -9 -7 -18 -15 -21 -8 -4 -15 -12 -15 -20 0 -8 -9 -14 -20
-14 -13 0 -20 -7 -20 -18 0 -11 -11 -24 -23 -29 -13 -6 -31 -26 -40 -45 -15
-31 -50 -62 -72 -63 -5 0 -9 -8 -7 -17 1 -8 -4 -18 -13 -22 -8 -3 -15 -12 -15
-21 0 -8 -4 -15 -10 -15 -5 0 -10 -7 -10 -15 0 -9 -9 -15 -24 -15 -19 0 -23
-4 -19 -20 4 -14 0 -20 -11 -20 -9 0 -15 -4 -13 -9 1 -5 -15 -27 -35 -49 -21
-23 -38 -46 -38 -52 0 -5 -11 -10 -25 -10 -16 0 -25 -6 -25 -15 0 -8 -4 -15
-10 -15 -5 0 -10 -9 -10 -20 0 -11 -4 -20 -10 -20 -5 0 -10 -7 -10 -15 0 -8
-9 -19 -20 -25 -11 -6 -18 -15 -15 -21 4 -5 -3 -9 -15 -9 -17 0 -20 -4 -15
-20 5 -14 2 -20 -9 -20 -9 0 -16 -4 -16 -9 0 -12 -67 -81 -79 -81 -6 0 -11 -4
-11 -10 0 -5 -9 -10 -20 -10 -13 0 -20 -7 -20 -20 0 -11 -5 -20 -11 -20 -6 0
-9 -9 -6 -19 3 -14 -5 -26 -29 -43 -19 -13 -34 -29 -34 -36 0 -8 -25 -38 -55
-67 -30 -30 -55 -59 -55 -65 0 -5 -4 -10 -10 -10 -5 0 -10 -7 -10 -15 0 -8 -7
-15 -15 -15 -8 0 -15 -7 -15 -15 0 -9 -7 -18 -15 -21 -8 -4 -15 -13 -15 -20 0
-8 -7 -17 -15 -20 -8 -4 -15 -11 -15 -18 0 -6 -25 -35 -55 -64 -30 -30 -55
-58 -55 -62 0 -5 -9 -12 -20 -15 -11 -3 -20 -14 -20 -23 0 -10 -11 -26 -25
-36 -14 -10 -25 -25 -25 -32 0 -8 -7 -14 -15 -14 -8 0 -15 -7 -15 -15 0 -8 -9
-15 -20 -15 -13 0 -20 -7 -20 -20 0 -11 -3 -20 -8 -20 -4 0 -12 -10 -17 -22
-6 -13 -20 -28 -32 -34 -13 -6 -20 -14 -16 -17 3 -4 -6 -7 -21 -7 -23 0 -26
-3 -21 -20 5 -15 2 -20 -10 -20 -12 0 -16 -6 -13 -18 4 -13 -4 -25 -22 -37
-15 -10 -34 -34 -41 -52 -7 -18 -19 -33 -26 -33 -8 0 -16 -7 -19 -15 -4 -8
-12 -15 -20 -15 -8 0 -14 -7 -14 -15 0 -8 -25 -40 -55 -71 -30 -31 -55 -63
-55 -70 0 -8 -7 -14 -15 -14 -8 0 -15 -6 -15 -12 0 -7 -12 -24 -25 -37 -14
-13 -25 -30 -25 -38 0 -9 -8 -13 -22 -11 -19 2 -22 -1 -20 -19 2 -16 -2 -23
-13 -23 -9 0 -13 -5 -10 -10 6 -10 -92 -110 -107 -110 -5 0 -8 -10 -8 -21 0
-17 -5 -20 -20 -16 -16 4 -20 1 -18 -12 4 -21 -54 -81 -77 -81 -12 0 -16 -6
-12 -20 3 -14 0 -20 -10 -20 -10 0 -14 -6 -10 -20 3 -12 -3 -24 -17 -33 -29
-20 -96 -87 -96 -97 0 -5 -12 -22 -26 -37 -23 -24 -33 -28 -77 -26 -29 1 -66
-5 -84 -13 -67 -30 -63 47 -63 -1253 -1 -1001 -3 -1180 -15 -1201 -8 -14 -14
-41 -14 -60 0 -19 6 -46 14 -60 8 -14 14 -35 15 -46 0 -32 25 -74 52 -88 14
-7 86 -15 169 -19 80 -3 158 -11 173 -17 15 -5 110 -10 216 -10 150 0 198 3
229 16 22 9 41 21 43 27 2 7 28 50 58 96 49 77 55 83 61 60 4 -13 7 -817 8
-1786 1 -1168 4 -1763 11 -1763 6 0 10 -9 10 -20 0 -13 7 -20 20 -20 11 0 20
-4 20 -10 0 -6 38 -10 93 -10 50 0 135 -7 187 -15 81 -13 401 -15 2205 -14
1489 0 2125 3 2160 11 34 8 435 12 1260 15 1049 3 1226 2 1330 -12 74 -9 196
-15 315 -15 167 1 201 3 233 19 79 37 72 -138 75 1881 1 993 6 1808 11 1813 4
4 20 -4 34 -20 129 -141 124 -138 292 -147 72 -3 148 -11 170 -16 22 -5 128
-10 235 -10 151 0 205 4 240 16 52 18 100 45 100 56 0 4 6 8 13 8 8 0 22 17
31 38 15 34 16 118 13 1037 -2 882 -5 1012 -20 1100 -9 55 -17 125 -17 156 0
58 -22 119 -44 119 -19 0 -76 55 -76 73 0 10 -8 17 -20 17 -11 0 -20 6 -20 14
0 8 -7 16 -15 20 -8 3 -15 12 -15 21 0 8 -4 15 -8 15 -5 0 -14 16 -22 35 -9
22 -20 35 -32 35 -10 0 -18 3 -18 8 0 4 -13 16 -29 26 -16 11 -35 35 -42 53
-7 18 -19 33 -26 33 -7 0 -13 7 -13 15 0 8 -8 15 -18 15 -11 0 -24 15 -35 40
-9 22 -21 40 -27 40 -5 0 -10 7 -10 15 0 8 -5 15 -11 15 -14 0 -109 96 -109
110 0 6 -4 10 -10 10 -5 0 -10 9 -10 20 0 11 -7 20 -15 20 -9 0 -18 7 -21 15
-4 8 -12 15 -20 15 -8 0 -14 7 -14 16 0 9 -17 33 -38 53 -21 20 -41 44 -45 54
-3 9 -11 17 -17 17 -5 0 -10 7 -10 15 0 8 -4 15 -10 15 -5 0 -10 9 -10 20 0
11 -7 20 -16 20 -13 0 -41 26 -91 85 -7 8 -13 21 -13 30 0 8 -4 15 -10 15 -11
0 -50 36 -50 48 -1 4 -14 18 -30 32 -17 13 -30 30 -30 37 0 7 -4 13 -10 13 -5
0 -10 7 -10 15 0 8 -9 15 -20 15 -11 0 -20 5 -20 11 0 6 -12 24 -27 39 -38 40
-53 58 -53 64 0 6 -45 56 -122 136 -32 32 -58 64 -58 70 0 5 -4 10 -10 10 -5
0 -10 9 -10 20 0 11 -6 20 -13 20 -16 0 -47 36 -47 55 0 8 -4 15 -10 15 -5 0
-10 9 -10 20 0 12 -7 20 -16 20 -18 0 -74 53 -74 69 0 6 -4 11 -10 11 -5 0
-10 9 -10 20 0 13 -7 20 -20 20 -13 0 -20 7 -20 20 0 11 -6 20 -12 20 -12 0
-68 70 -68 84 0 12 -41 46 -55 46 -8 0 -15 6 -15 13 -1 6 -19 26 -40 42 -21
17 -39 38 -40 48 0 9 -7 17 -16 17 -9 0 -18 9 -21 20 -3 11 -8 20 -12 20 -4 0
-13 16 -21 35 -8 19 -17 35 -22 35 -4 0 -8 5 -8 11 0 14 -52 64 -62 61 -5 -1
-8 8 -8 20 0 12 -8 30 -17 41 -17 18 -18 105 -24 1421 -4 974 -9 1416 -17
1451 -6 28 -11 98 -11 157 -1 60 -5 110 -11 113 -5 3 -10 15 -10 26 0 12 -7
19 -20 19 -11 0 -20 5 -20 10 0 7 -272 10 -795 10 -523 0 -795 -3 -795 -10z
m1164 -522 c11 -41 7 -2588 -4 -2588 -6 0 -10 -48 -10 -124 0 -73 4 -127 10
-131 6 -3 10 -14 10 -24 0 -23 26 -75 45 -91 8 -7 15 -18 15 -24 0 -6 32 -43
70 -81 39 -38 70 -74 70 -80 0 -6 27 -37 60 -70 33 -33 60 -64 60 -70 0 -6 32
-42 70 -80 39 -38 70 -74 70 -80 0 -6 27 -37 60 -70 33 -33 60 -64 60 -70 0
-6 31 -42 70 -80 38 -37 67 -72 65 -75 -2 -4 9 -20 25 -35 17 -16 30 -34 30
-40 0 -6 32 -42 70 -80 39 -38 70 -74 70 -80 0 -6 27 -37 60 -70 33 -33 60
-64 60 -70 0 -13 52 -65 65 -65 13 0 55 -42 55 -55 0 -14 52 -65 66 -65 6 0
16 -16 24 -35 8 -20 22 -43 32 -52 10 -9 18 -21 18 -27 0 -15 79 -91 103 -99
9 -4 17 -12 17 -20 0 -7 14 -26 30 -42 17 -16 30 -34 30 -40 0 -6 18 -29 40
-50 22 -21 40 -44 40 -50 0 -14 80 -90 103 -98 9 -4 17 -12 17 -20 0 -7 14
-26 30 -42 17 -16 30 -34 30 -40 0 -6 18 -29 40 -50 22 -21 40 -44 40 -50 0
-14 82 -95 96 -95 6 0 19 -9 29 -20 10 -11 14 -20 10 -20 -5 0 4 -13 20 -30
16 -16 25 -30 20 -30 -5 0 3 -13 18 -28 15 -16 25 -31 22 -34 -3 -2 4 -13 15
-23 11 -10 20 -23 20 -30 0 -6 5 -16 10 -21 7 -7 10 -289 10 -825 l0 -814 -95
-3 c-74 -2 -95 0 -95 11 0 7 -18 31 -40 52 -22 21 -40 44 -40 50 0 6 -31 42
-70 80 -38 38 -70 74 -70 79 0 16 -42 56 -59 56 -9 0 -22 9 -29 20 -7 11 -21
20 -32 20 -11 0 -20 5 -20 10 0 6 -13 10 -30 10 -16 0 -30 5 -30 10 0 12 -257
14 -264 1 -3 -4 -23 -11 -44 -14 -21 -4 -48 -16 -61 -28 -12 -11 -24 -19 -26
-17 -3 2 -5 247 -6 544 0 311 -5 560 -10 589 -6 28 -13 100 -16 162 -4 78 -9
116 -19 124 -8 6 -14 19 -14 29 0 22 -26 74 -45 90 -8 7 -15 17 -15 23 0 15
-41 57 -56 57 -6 0 -17 7 -24 15 -16 19 -68 45 -91 45 -10 0 -21 5 -24 10 -4
7 -462 10 -1340 10 -878 0 -1336 -3 -1340 -10 -3 -5 -14 -10 -24 -10 -23 0
-75 -26 -91 -45 -7 -8 -17 -15 -23 -15 -15 0 -57 -41 -57 -56 0 -6 -7 -17 -15
-24 -19 -15 -45 -68 -45 -90 0 -9 -4 -20 -10 -26 -7 -7 -11 -911 -12 -2654
l-3 -2645 -1755 -3 c-965 -2 -1806 0 -1868 3 l-113 7 1 1717 c1 1633 -2 1955
-22 1967 -4 3 -8 13 -8 23 0 23 -26 75 -45 91 -8 7 -15 17 -15 23 0 17 -42 57
-59 57 -9 0 -22 9 -29 20 -7 11 -21 20 -32 20 -11 0 -20 5 -20 10 0 6 -11 10
-24 10 -14 0 -28 5 -31 10 -4 6 -60 10 -136 10 -79 0 -129 -4 -129 -10 0 -5
-13 -10 -30 -10 -16 0 -30 -4 -30 -10 0 -5 -8 -10 -18 -10 -10 0 -24 -9 -32
-20 -8 -11 -20 -20 -28 -20 -17 0 -62 -45 -62 -62 -1 -7 -28 -37 -60 -67 -33
-30 -60 -60 -60 -66 0 -12 -103 -115 -114 -115 -4 0 -5 341 -4 758 l3 757 32
65 c19 38 79 120 143 195 61 72 150 177 198 235 48 58 121 141 162 185 42 44
103 111 135 150 33 38 103 117 155 175 110 122 370 426 580 675 198 237 367
431 476 550 155 170 427 485 722 838 51 62 117 137 146 167 29 30 93 105 143
165 50 61 106 124 123 140 41 38 295 332 415 481 50 61 135 162 190 224 307
347 509 583 578 678 122 167 260 277 357 284 22 2 41 -9 78 -42 28 -25 50 -51
51 -59 1 -7 33 -43 71 -79 39 -36 70 -70 70 -76 0 -7 27 -38 60 -71 33 -33 60
-64 60 -70 0 -6 31 -42 70 -80 38 -37 67 -71 65 -75 -2 -4 23 -33 55 -65 33
-33 60 -64 60 -70 0 -14 82 -94 111 -109 13 -6 25 -22 27 -34 2 -12 8 -22 13
-22 5 0 9 -8 9 -18 0 -9 9 -23 20 -30 11 -7 20 -18 20 -24 0 -16 51 -68 67
-68 7 0 18 -9 25 -20 7 -11 21 -20 30 -20 10 0 18 -4 18 -10 0 -5 14 -10 30
-10 17 0 30 -4 30 -9 0 -9 236 -26 320 -23 100 5 204 71 249 160 36 70 41 143
41 557 0 232 4 425 10 456 14 72 53 119 116 141 41 14 91 17 315 18 l267 0 6
-22z m540 -5505 c3 -21 6 -1211 6 -2646 l0 -2607 -1107 2 -1108 3 -3 2525 c-2
1853 1 2543 9 2594 9 54 18 76 43 103 58 63 26 62 1142 62 l1011 1 7 -37z"/>
<path d="M3415 6460 c-3 -5 -14 -10 -24 -10 -23 0 -75 -26 -91 -45 -7 -8 -18
-15 -24 -15 -7 0 -25 -13 -41 -30 -16 -16 -25 -30 -20 -30 5 0 -3 -13 -18 -28
-15 -16 -25 -31 -22 -34 3 -3 -1 -11 -9 -17 -8 -7 -12 -19 -9 -27 3 -8 0 -20
-6 -28 -16 -19 -16 -2813 0 -2833 7 -7 9 -16 6 -20 -4 -3 -1 -15 5 -27 7 -11
11 -24 11 -27 -1 -4 7 -15 17 -24 11 -10 20 -22 20 -27 0 -14 48 -58 63 -58 8
0 17 -6 20 -14 6 -16 83 -57 91 -49 3 4 14 -1 23 -9 30 -27 222 -31 1453 -32
l1175 -1 53 24 c67 30 134 104 153 168 12 40 14 265 13 1358 -1 1293 -6 1541
-34 1569 -6 6 -10 17 -10 26 0 22 -26 75 -45 90 -8 7 -15 18 -15 24 0 15 -42
56 -57 56 -6 0 -16 7 -23 15 -16 19 -68 45 -91 45 -10 0 -21 5 -24 10 -4 7
-438 10 -1270 10 -832 0 -1266 -3 -1270 -10z m2326 -566 c5 -22 9 -538 9
-1171 l0 -1133 -1012 0 c-557 0 -1029 3 -1048 6 l-35 6 2 1061 c1 584 5 1085
8 1114 7 61 37 109 85 137 34 21 49 21 1000 26 531 3 969 2 973 -1 5 -4 13
-24 18 -45z"/>
</g>
</svg>
